# xmcd CD database file
#
# Track frame offsets:
#	150
#	26932
#	46987
#	70325
#	88710
#	107580
#	125077
#	157775
#
# Disc length: 2276 seconds
#
# Revision: 0
# Processed by: cddbd v1.4PL0 Copyright (c) Steve Scherf et al.
# Submitted via: CDex 1.50Beta7
#
DISCID=6608e208
DTITLE=David T. Walker - PLUM HAPPY
DYEAR=1996
DGENRE=Rhythmic Soul
TTITLE0=Doo Doo
TTITLE1=Oh Happy Day
TTITLE2=Come Together
TTITLE3=Lay Lady Lay
TTITLE4=Plum Happy
TTITLE5=Bluse For My Father 
TTITLE6=Listen To The Sun 
TTITLE7=Love Vibration
EXTD=YEAR: 1996
EXTT0=
EXTT1=
EXTT2=
EXTT3=
EXTT4=
EXTT5=
EXTT6=
EXTT7=
PLAYORDER=
